HIERARCHY
ROOT Hips
{
  OFFSET 5.72205e-005 65.662 3.42586
  CHANNELS 6 Xposition Yposition Zposition Zrotation Xrotation Yrotation
  JOINT Chest
  {
    OFFSET 0 8.7983 -4.7612
    CHANNELS 6 Xposition Yposition Zposition Zrotation Xrotation Yrotation
    JOINT Chest2
    {
      OFFSET 0 8.0291 0.4195
      CHANNELS 6 Xposition Yposition Zposition Zrotation Xrotation Yrotation
      JOINT Chest3
      {
        OFFSET 0 9.9351 -2.2114
        CHANNELS 6 Xposition Yposition Zposition Zrotation Xrotation Yrotation
        JOINT Neck
        {
          OFFSET 0 22.3885 -0.4656
          CHANNELS 6 Xposition Yposition Zposition Zrotation Xrotation Yrotation
          JOINT Head
          {
            OFFSET -0.0001 12.643 3.4389
            CHANNELS 6 Xposition Yposition Zposition Zrotation Xrotation Yrotation
            End Site
            {
              OFFSET 0.0001 17.6655 0.5274
            }
          }
        }
        JOINT LeftCollar
        {
          OFFSET 2.2603 21.606 7.4023
          CHANNELS 6 Xposition Yposition Zposition Zrotation Xrotation Yrotation
          JOINT LeftShoulder
          {
            OFFSET 13.5163 -1.1332 -5.0146
            CHANNELS 6 Xposition Yposition Zposition Zrotation Xrotation Yrotation
            JOINT LeftElbow
            {
              OFFSET -0.0995 -28.05 -0.2431
              CHANNELS 6 Xposition Yposition Zposition Zrotation Xrotation Yrotation
              JOINT LeftWrist
              {
                OFFSET 0.0679 -23.3996 -0.1402
                CHANNELS 6 Xposition Yposition Zposition Zrotation Xrotation Yrotation
                JOINT LeftFinger1
                {
                  OFFSET 0.7932 -9.069 2.5189
                  CHANNELS 6 Xposition Yposition Zposition Zrotation Xrotation Yrotation
                  JOINT LeftFinger11
                  {
                    OFFSET -0.8272 -3.3923 0.5977
                    CHANNELS 6 Xposition Yposition Zposition Zrotation Xrotation Yrotation
                    JOINT LeftFinger12
                    {
                      OFFSET -0.5649 -2.3158 0.4082
                      CHANNELS 6 Xposition Yposition Zposition Zrotation Xrotation Yrotation
                      End Site
                      {
                        OFFSET -0.4919 -1.6479 0.2673
                      }
                    }
                  }
                }
                JOINT LeftFinger2
                {
                  OFFSET 0.9159 -9.2044 0.2193
                  CHANNELS 6 Xposition Yposition Zposition Zrotation Xrotation Yrotation
                  JOINT LeftFinger21
                  {
                    OFFSET 0.0117 -4.1944 -0.0248
                    CHANNELS 6 Xposition Yposition Zposition Zrotation Xrotation Yrotation
                    JOINT LeftFinger22
                    {
                      OFFSET 0.0071 -2.3249 -0.0142
                      CHANNELS 6 Xposition Yposition Zposition Zrotation Xrotation Yrotation
                      End Site
                      {
                        OFFSET -0.1475 -2.0882 0.0028
                      }
                    }
                  }
                }
                JOINT LeftFinger3
                {
                  OFFSET 0.6113 -8.7231 -2.0637
                  CHANNELS 6 Xposition Yposition Zposition Zrotation Xrotation Yrotation
                  JOINT LeftFinger31
                  {
                    OFFSET -0.1927 -3.8059 -0.2383
                    CHANNELS 6 Xposition Yposition Zposition Zrotation Xrotation Yrotation
                    JOINT LeftFinger32
                    {
                      OFFSET -0.1091 -2.1688 -0.1362
                      CHANNELS 6 Xposition Yposition Zposition Zrotation Xrotation Yrotation
                      End Site
                      {
                        OFFSET -0.2358 -1.9176 -0.0906
                      }
                    }
                  }
                }
                JOINT LeftFinger4
                {
                  OFFSET -0.6151 -8.0947 -3.5641
                  CHANNELS 6 Xposition Yposition Zposition Zrotation Xrotation Yrotation
                  JOINT LeftFinger41
                  {
                    OFFSET -0.4882 -2.341 -0.6462
                    CHANNELS 6 Xposition Yposition Zposition Zrotation Xrotation Yrotation
                    JOINT LeftFinger42
                    {
                      OFFSET -0.3575 -1.7167 -0.4742
                      CHANNELS 6 Xposition Yposition Zposition Zrotation Xrotation Yrotation
                      End Site
                      {
                        OFFSET -0.4187 -1.5237 -0.3496
                      }
                    }
                  }
                }
                JOINT LeftFinger0
                {
                  OFFSET -1.42 -1.8761 1.4223
                  CHANNELS 6 Xposition Yposition Zposition Zrotation Xrotation Yrotation
                  JOINT LeftFinger01
                  {
                    OFFSET -1.1471 -3.4929 2.6334
                    CHANNELS 6 Xposition Yposition Zposition Zrotation Xrotation Yrotation
                    JOINT LeftFinger02
                    {
                      OFFSET -0.823 -2.3 1.6571
                      CHANNELS 6 Xposition Yposition Zposition Zrotation Xrotation Yrotation
                      End Site
                      {
                        OFFSET -0.5822 -1.6914 1.1582
                      }
                    }
                  }
                }
              }
            }
          }
        }
        JOINT RightCollar
        {
          OFFSET -2.2603 21.606 7.4023
          CHANNELS 6 Xposition Yposition Zposition Zrotation Xrotation Yrotation
          JOINT RightShoulder
          {
            OFFSET -13.5187 -1.1334 -5.0155
            CHANNELS 6 Xposition Yposition Zposition Zrotation Xrotation Yrotation
            JOINT RightElbow
            {
              OFFSET 0.0994 -28.0499 -0.2431
              CHANNELS 6 Xposition Yposition Zposition Zrotation Xrotation Yrotation
              JOINT RightWrist
              {
                OFFSET -0.0679 -23.3996 -0.1402
                CHANNELS 6 Xposition Yposition Zposition Zrotation Xrotation Yrotation
                JOINT RightFinger1
                {
                  OFFSET -0.7932 -9.0691 2.5189
                  CHANNELS 6 Xposition Yposition Zposition Zrotation Xrotation Yrotation
                  JOINT RightFinger11
                  {
                    OFFSET 0.8272 -3.3923 0.5977
                    CHANNELS 6 Xposition Yposition Zposition Zrotation Xrotation Yrotation
                    JOINT RightFinger12
                    {
                      OFFSET 0.565 -2.3158 0.4082
                      CHANNELS 6 Xposition Yposition Zposition Zrotation Xrotation Yrotation
                      End Site
                      {
                        OFFSET 0.4919 -1.6479 0.2673
                      }
                    }
                  }
                }
                JOINT RightFinger2
                {
                  OFFSET -0.916 -9.2044 0.2193
                  CHANNELS 6 Xposition Yposition Zposition Zrotation Xrotation Yrotation
                  JOINT RightFinger21
                  {
                    OFFSET -0.0117 -4.1944 -0.0248
                    CHANNELS 6 Xposition Yposition Zposition Zrotation Xrotation Yrotation
                    JOINT RightFinger22
                    {
                      OFFSET -0.0071 -2.3249 -0.0142
                      CHANNELS 6 Xposition Yposition Zposition Zrotation Xrotation Yrotation
                      End Site
                      {
                        OFFSET 0.1475 -2.0882 0.0028
                      }
                    }
                  }
                }
                JOINT RightFinger3
                {
                  OFFSET -0.6113 -8.7231 -2.0637
                  CHANNELS 6 Xposition Yposition Zposition Zrotation Xrotation Yrotation
                  JOINT RightFinger31
                  {
                    OFFSET 0.1927 -3.8059 -0.2383
                    CHANNELS 6 Xposition Yposition Zposition Zrotation Xrotation Yrotation
                    JOINT RightFinger32
                    {
                      OFFSET 0.1091 -2.1688 -0.1362
                      CHANNELS 6 Xposition Yposition Zposition Zrotation Xrotation Yrotation
                      End Site
                      {
                        OFFSET 0.2358 -1.9176 -0.0906
                      }
                    }
                  }
                }
                JOINT RightFinger4
                {
                  OFFSET 0.6151 -8.0947 -3.564
                  CHANNELS 6 Xposition Yposition Zposition Zrotation Xrotation Yrotation
                  JOINT RightFinger41
                  {
                    OFFSET 0.4882 -2.341 -0.6462
                    CHANNELS 6 Xposition Yposition Zposition Zrotation Xrotation Yrotation
                    JOINT RightFinger42
                    {
                      OFFSET 0.3574 -1.7166 -0.4742
                      CHANNELS 6 Xposition Yposition Zposition Zrotation Xrotation Yrotation
                      End Site
                      {
                        OFFSET 0.4187 -1.5237 -0.3496
                      }
                    }
                  }
                }
                JOINT RightFinger0
                {
                  OFFSET 1.4199 -1.8761 1.4221
                  CHANNELS 6 Xposition Yposition Zposition Zrotation Xrotation Yrotation
                  JOINT RightFinger01
                  {
                    OFFSET 1.1472 -3.4929 2.6336
                    CHANNELS 6 Xposition Yposition Zposition Zrotation Xrotation Yrotation
                    JOINT RightFinger02
                    {
                      OFFSET 0.8229 -2.3 1.6571
                      CHANNELS 6 Xposition Yposition Zposition Zrotation Xrotation Yrotation
                      End Site
                      {
                        OFFSET 0.5822 -1.6914 1.1582
                      }
                    }
                  }
                }
              }
            }
          }
        }
      }
    }
  }
  JOINT RightHip
  {
    OFFSET -9.412 3.9771 -0.7758
    CHANNELS 6 Xposition Yposition Zposition Zrotation Xrotation Yrotation
    JOINT RightKnee
    {
      OFFSET -0.7531 -40.938 0
      CHANNELS 6 Xposition Yposition Zposition Zrotation Xrotation Yrotation
      JOINT RightAnkle
      {
        OFFSET 0 -40.1986 0
        CHANNELS 6 Xposition Yposition Zposition Zrotation Xrotation Yrotation
        JOINT RightToe
        {
          OFFSET 0 -4.4182 9.239
          CHANNELS 6 Xposition Yposition Zposition Zrotation Xrotation Yrotation
          End Site
          {
            OFFSET 0 0 6.1981
          }
        }
      }
    }
  }
  JOINT LeftHip
  {
    OFFSET 9.4119 3.9773 -0.7758
    CHANNELS 6 Xposition Yposition Zposition Zrotation Xrotation Yrotation
    JOINT LeftKnee
    {
      OFFSET 0.7532 -40.9383 0
      CHANNELS 6 Xposition Yposition Zposition Zrotation Xrotation Yrotation
      JOINT LeftAnkle
      {
        OFFSET 0 -40.1986 0
        CHANNELS 6 Xposition Yposition Zposition Zrotation Xrotation Yrotation
        JOINT LeftToe
        {
          OFFSET 0 -4.4182 9.239
          CHANNELS 6 Xposition Yposition Zposition Zrotation Xrotation Yrotation
          End Site
          {
            OFFSET 0 0 6.1981
          }
        }
      }
    }
  }
}
MOTION
Frames:	4
Frame Time:	0.0333333
-1.03208 2.11541 10.32 180 -84.6892 180 0 8.7983 -4.7612 0.142615 0.170292 -0.300701 0 8.0291 0.4195 0.286128 0.339857 -0.601838 0 9.9351 -2.2114 0.286123 0.339843 -0.601829 -2.22045e-016 22.3885 -0.4656 16.2749 -0.961112 0.279266 -0.0001 12.643 3.4389 10.9999 -0.466453 0.0904846 2.2603 21.606 7.4023 0.526069 -0.425983 -11.5843 13.5163 -1.1332 -5.0146 10.6874 -10.3911 20.0104 -0.0995 -28.05 -0.2431 -24.9059 -48.3756 -22.3648 0.0679 -23.3996 -0.1402 -43.4608 21.9783 0.663227 0.7932 -9.069 2.5189 -7.63197e-006 7.12371e-007 3.32637e-007 -0.8272 -3.3923 0.5977 -1.09614e-006 -3.34556e-007 1.26074e-006 -0.5649 -2.3158 0.4082 -3.18055e-015 0 1.59028e-015 0.9159 -9.2044 0.2193 -7.63197e-006 7.12371e-007 3.32637e-007 0.0117 -4.1944 -0.0248 -0.0127839 0.00231736 8.81823e-005 0.0071 -2.3249 -0.0142 -2.19222e-006 2.47234e-006 2.52139e-006 0.6113 -8.7231 -2.0637 -7.63197e-006 7.12371e-007 3.32637e-007 -0.1927 -3.8059 -0.2383 -0.0160077 0.00299441 0.000860562 -0.1091 -2.1688 -0.1362 -5.48051e-007 -3.34578e-007 6.30338e-007 -0.6151 -8.0947 -3.5641 -7.63197e-006 7.12371e-007 3.32637e-007 -0.4882 -2.341 -0.6462 -0.012586 0.00312105 0.00283205 -0.3575 -1.7167 -0.4742 -5.48063e-007 -1.04198e-006 6.30331e-007 -1.42 -1.8761 1.4223 -7.63197e-006 7.12371e-007 3.32637e-007 -1.1471 -3.4929 2.6334 -1.09614e-006 -3.34556e-007 1.26074e-006 -0.823 -2.3 1.6571 -3.18055e-015 0 1.59028e-015 -2.2603 21.606 7.4023 -21.2169 -13.1741 14.4664 -13.5187 -1.1334 -5.0155 -18.0491 -17.4103 -16.9571 0.0994 -28.0499 -0.2431 74.3074 -56.388 63.2175 -0.0679 -23.3996 -0.1402 57.8082 -8.36366 -10.3677 -0.7932 -9.0691 2.5189 1.29774e-006 -1.77772e-006 -3.94136e-006 0.8272 -3.3923 0.5977 7.95139e-016 6.36111e-015 -0 0.565 -2.3158 0.4082 0 0 -1.59028e-015 -0.916 -9.2044 0.2193 1.29774e-006 -1.77772e-006 -3.94136e-006 -0.0117 -4.1944 -0.0248 0.0129958 0.00232178 -8.54516e-005 -0.0071 -2.3249 -0.0142 -1.76556e-031 3.18055e-015 3.18055e-015 -0.6113 -8.7231 -2.0637 1.29774e-006 -1.77772e-006 -3.94136e-006 0.1927 -3.8059 -0.2383 0.0162776 0.00302313 -0.000871113 0.1091 -2.1688 -0.1362 -1.76556e-031 3.18055e-015 3.18055e-015 0.6151 -8.0947 -3.564 1.29774e-006 -1.77772e-006 -3.94136e-006 0.4882 -2.341 -0.6462 0.0145606 0.00367387 -0.00325805 0.3574 -1.7166 -0.4742 0 3.18055e-015 -0 1.4199 -1.8761 1.4221 1.29774e-006 -1.77772e-006 -3.94136e-006 1.1472 -3.4929 2.6336 7.95139e-016 6.36111e-015 -0 0.8229 -2.3 1.6571 0 0 -1.59028e-015 -9.412 3.9771 -0.7758 -11.2078 -23.0495 -8.42877 -0.7531 -40.938 -3.33067e-015 71.7323 76.9551 -79.697 8.88178e-016 -40.1986 0 5.88286 25.5949 -4.95768 0 -4.4182 9.239 -1.9159e-006 4.36132e-007 -2.36816e-006 9.4119 3.9773 -0.7758 8.90567 -23.6297 11.892 0.7532 -40.9383 -8.88178e-016 -98.1031 77.9317 105.581 -8.88179e-016 -40.1986 -7.10543e-015 -3.35932 19.2731 6.60946 0 -4.4182 9.239 -2.78299e-015 0 1.59028e-015 
-1.03205 2.05201 10.2577 180 -84.3885 180 0 8.7983 -4.7612 0.141201 0.215701 -0.299152 -2.22045e-016 8.0291 0.4195 0.283526 0.430615 -0.598832 -2.22045e-016 9.9351 -2.2114 0.28353 0.430631 -0.59884 0 22.3885 -0.4656 16.0501 -0.961996 0.274801 -0.0001 12.643 3.4389 10.9999 -0.441874 0.0857157 2.2603 21.606 7.4023 0.414588 -0.629326 -11.7363 13.5163 -1.1332 -5.0146 10.6874 -10.3911 20.0104 -0.0995 -28.05 -0.2431 -24.336 -47.8636 -21.8892 0.0679 -23.3996 -0.1402 -43.4491 21.8443 0.51007 0.7932 -9.069 2.5189 2.64346e-006 7.24123e-007 1.45793e-006 -0.8272 -3.3923 0.5977 -6.36111e-015 -3.18055e-015 -0 -0.5649 -2.3158 0.4082 -6.36111e-015 9.54166e-015 -1.59028e-015 0.9159 -9.2044 0.2193 2.64346e-006 7.24123e-007 1.45793e-006 0.0117 -4.1944 -0.0248 -0.0128231 0.00232174 9.19465e-005 0.0071 -2.3249 -0.0142 4.77083e-015 -9.54166e-015 -9.54166e-015 0.6113 -8.7231 -2.0637 2.64346e-006 7.24123e-007 1.45793e-006 -0.1927 -3.8059 -0.2383 -0.0160648 0.00299092 0.000858186 -0.1091 -2.1688 -0.1362 -1.59028e-015 9.54166e-015 -3.18055e-015 -0.6151 -8.0947 -3.5641 2.64346e-006 7.24123e-007 1.45793e-006 -0.4882 -2.341 -0.6462 -0.0125852 0.0031207 0.00283085 -0.3575 -1.7167 -0.4742 6.36111e-015 0 -6.36111e-015 -1.42 -1.8761 1.4223 2.64346e-006 7.24123e-007 1.45793e-006 -1.1471 -3.4929 2.6334 -6.36111e-015 -3.18055e-015 -0 -0.823 -2.3 1.6571 -6.36111e-015 9.54166e-015 -1.59028e-015 -2.2603 21.606 7.4023 -20.9196 -12.8119 14.8433 -13.5187 -1.1334 -5.0155 -18.3274 -17.441 -17.0903 0.0994 -28.0499 -0.2431 73.9512 -56.4912 62.9083 -0.0679 -23.3996 -0.1402 58.1049 -8.44928 -9.97522 -0.7932 -9.0691 2.5189 -1.55729e-006 2.18143e-006 4.72966e-006 0.8272 -3.3923 0.5977 -3.06851e-007 -1.83062e-006 -4.02381e-008 0.565 -2.3158 0.4082 -1.25044e-006 5.31725e-007 4.7699e-006 -0.916 -9.2044 0.2193 -1.55729e-006 2.18143e-006 4.72966e-006 -0.0117 -4.1944 -0.0248 0.0129891 0.00231848 -8.41667e-005 -0.0071 -2.3249 -0.0142 -7.95139e-016 -3.18055e-015 -1.59028e-015 -0.6113 -8.7231 -2.0637 -1.55729e-006 2.18143e-006 4.72966e-006 0.1927 -3.8059 -0.2383 0.0163457 0.00303254 -0.000873449 0.1091 -2.1688 -0.1362 1.76556e-031 -3.18055e-015 3.18055e-015 0.6151 -8.0947 -3.564 -1.55729e-006 2.18143e-006 4.72966e-006 0.4882 -2.341 -0.6462 0.0145673 0.00367454 -0.00325751 0.3574 -1.7166 -0.4742 5.40832e-006 -1.93558e-007 6.85603e-006 1.4199 -1.8761 1.4221 -1.55729e-006 2.18143e-006 4.72966e-006 1.1472 -3.4929 2.6336 -3.06851e-007 -1.83062e-006 -4.02381e-008 0.8229 -2.3 1.6571 -1.25044e-006 5.31725e-007 4.7699e-006 -9.412 3.9771 -0.7758 -11.2767 -22.7728 -8.5161 -0.7531 -40.938 -2.44249e-015 71.8154 76.9612 -79.7842 8.88179e-016 -40.1986 0 5.71686 25.7091 -4.88134 0 -4.4182 9.239 -5.96354e-016 -3.18055e-015 -1.59028e-015 9.4119 3.9773 -0.7758 8.91814 -23.3837 11.8999 0.7532 -40.9383 -1.77636e-015 -98.1937 77.929 105.674 1.77636e-015 -40.1986 0 -3.29699 19.3857 6.61226 0 -4.4182 9.239 3.11835e-006 9.76384e-007 5.98167e-007 
-1.032 1.98849 10.1953 -180 -84.0878 -180 0 8.7983 -4.7612 0.139894 0.261174 -0.297773 0 8.0291 0.4195 0.281144 0.52162 -0.596184 -2.22045e-016 9.9351 -2.2114 0.281147 0.521654 -0.596191 0 22.3885 -0.4656 15.8248 -0.963202 0.271398 -0.0001 12.643 3.4389 10.9998 -0.417317 0.08095 2.2603 21.606 7.4023 0.302134 -0.832996 -11.8876 13.5163 -1.1332 -5.0146 10.6874 -10.3911 20.0104 -0.0995 -28.05 -0.2431 -23.778 -47.3486 -21.4259 0.0679 -23.3996 -0.1402 -43.4377 21.7103 0.357057 0.7932 -9.069 2.5189 7.69442e-007 -1.60068e-006 2.50552e-006 -0.8272 -3.3923 0.5977 -6.36111e-015 0 1.59028e-015 -0.5649 -2.3158 0.4082 -4.06336e-007 3.08987e-006 6.04821e-006 0.9159 -9.2044 0.2193 7.69442e-007 -1.60068e-006 2.50552e-006 0.0117 -4.1944 -0.0248 -0.0128551 0.00233425 8.82495e-005 0.0071 -2.3249 -0.0142 3.33055e-006 -1.66312e-006 8.54493e-006 0.6113 -8.7231 -2.0637 7.69442e-007 -1.60068e-006 2.50552e-006 -0.1927 -3.8059 -0.2383 -0.016065 0.00299861 0.000857182 -0.1091 -2.1688 -0.1362 -5.22398e-006 -4.27262e-006 -1.33959e-006 -0.6151 -8.0947 -3.5641 7.69442e-007 -1.60068e-006 2.50552e-006 -0.4882 -2.341 -0.6462 -0.0125729 0.00311459 0.00282865 -0.3575 -1.7167 -0.4742 -1.09774e-006 -3.33984e-007 1.25714e-006 -1.42 -1.8761 1.4223 7.69442e-007 -1.60068e-006 2.50552e-006 -1.1471 -3.4929 2.6334 -6.36111e-015 0 1.59028e-015 -0.823 -2.3 1.6571 -4.06336e-007 3.08987e-006 6.04821e-006 -2.2603 21.606 7.4023 -20.6254 -12.4488 15.2183 -13.5187 -1.1334 -5.0155 -18.6057 -17.4711 -17.2235 0.0994 -28.0499 -0.2431 73.5929 -56.5934 62.5971 -0.0679 -23.3996 -0.1402 58.4023 -8.53288 -9.58224 -0.7932 -9.0691 2.5189 -0 0 3.18055e-015 0.8272 -3.3923 0.5977 -7.95139e-016 6.36111e-015 1.59028e-015 0.565 -2.3158 0.4082 -1.76556e-031 6.36111e-015 1.59028e-015 -0.916 -9.2044 0.2193 -0 0 3.18055e-015 -0.0117 -4.1944 -0.0248 0.0129405 0.00231383 -8.48939e-005 -0.0071 -2.3249 -0.0142 -7.95139e-016 3.18055e-015 3.18055e-015 -0.6113 -8.7231 -2.0637 -0 0 3.18055e-015 0.1927 -3.8059 -0.2383 0.0163667 0.00304412 -0.000871837 0.1091 -2.1688 -0.1362 0 0 -1.59028e-015 0.6151 -8.0947 -3.564 -0 0 3.18055e-015 0.4882 -2.341 -0.6462 0.014541 0.00366731 -0.00325112 0.3574 -1.7166 -0.4742 -7.95139e-016 6.36111e-015 1.59028e-015 1.4199 -1.8761 1.4221 -0 0 3.18055e-015 1.1472 -3.4929 2.6336 -7.95139e-016 6.36111e-015 1.59028e-015 0.8229 -2.3 1.6571 -1.76556e-031 6.36111e-015 1.59028e-015 -9.412 3.9771 -0.7758 -11.345 -22.4961 -8.60282 -0.7531 -40.938 -4.44089e-016 71.8992 76.9672 -79.8722 -8.88179e-016 -40.1986 7.10543e-015 5.5505 25.8231 -4.80457 1.77636e-015 -4.4182 9.239 5.96354e-016 -1.59028e-015 -0 9.4119 3.9773 -0.7758 8.93067 -23.137 11.9078 0.7532 -40.9383 -2.66454e-015 -98.2816 77.9264 105.765 4.44089e-016 -40.1986 0 -3.2346 19.4982 6.61497 -1.77636e-015 -4.4182 9.239 -4.7447e-006 -5.89255e-007 -1.32069e-006 
-1.03195 1.92484 10.1326 -180 -83.7872 180 0 8.7983 -4.7612 0.138557 0.306575 -0.296277 -2.22045e-016 8.0291 0.4195 0.278707 0.612431 -0.593314 -4.44089e-016 9.9351 -2.2114 0.278703 0.612427 -0.593306 0 22.3885 -0.4656 15.5998 -0.964147 0.267382 -0.0001 12.643 3.4389 10.9998 -0.392809 0.0761892 2.2603 21.606 7.4023 0.189376 -1.03593 -12.0399 13.5163 -1.1332 -5.0146 10.6873 -10.3911 20.0103 -0.0995 -28.05 -0.2431 -23.2317 -46.8308 -20.9745 0.0679 -23.3996 -0.1402 -43.4267 21.5763 0.204254 0.7932 -9.069 2.5189 4.77083e-015 0 1.59028e-015 -0.8272 -3.3923 0.5977 2.07662e-006 -2.29958e-006 4.39319e-006 -0.5649 -2.3158 0.4082 5.49286e-007 3.33706e-007 -6.27718e-007 0.9159 -9.2044 0.2193 4.77083e-015 0 1.59028e-015 0.0117 -4.1944 -0.0248 -0.0128648 0.00233841 8.70506e-005 0.0071 -2.3249 -0.0142 1.59028e-015 -3.18055e-015 4.77083e-015 0.6113 -8.7231 -2.0637 4.77083e-015 0 1.59028e-015 -0.1927 -3.8059 -0.2383 -0.016053 0.00299762 0.000866904 -0.1091 -2.1688 -0.1362 -2.07502e-006 2.29153e-006 -4.39338e-006 -0.6151 -8.0947 -3.5641 4.77083e-015 0 1.59028e-015 -0.4882 -2.341 -0.6462 -0.0125673 0.00312221 0.00282395 -0.3575 -1.7167 -0.4742 1.15414e-005 -1.03072e-005 1.43793e-006 -1.42 -1.8761 1.4223 4.77083e-015 0 1.59028e-015 -1.1471 -3.4929 2.6334 2.07662e-006 -2.29958e-006 4.39319e-006 -0.823 -2.3 1.6571 5.49286e-007 3.33706e-007 -6.27718e-007 -2.2603 21.606 7.4023 -20.3339 -12.0833 15.5906 -13.5187 -1.1334 -5.0155 -18.8845 -17.5007 -17.3571 0.0994 -28.0499 -0.2431 73.2327 -56.6944 62.2836 -0.0679 -23.3996 -0.1402 58.7003 -8.61447 -9.18875 -0.7932 -9.0691 2.5189 1.76556e-031 -3.18055e-015 3.18055e-015 0.8272 -3.3923 0.5977 7.95139e-016 0 -0 0.565 -2.3158 0.4082 7.95139e-016 -3.18055e-015 1.59028e-015 -0.916 -9.2044 0.2193 1.76556e-031 -3.18055e-015 3.18055e-015 -0.0117 -4.1944 -0.0248 0.0129322 0.00231266 -8.84111e-005 -0.0071 -2.3249 -0.0142 7.95139e-016 6.36111e-015 1.59028e-015 -0.6113 -8.7231 -2.0637 1.76556e-031 -3.18055e-015 3.18055e-015 0.1927 -3.8059 -0.2383 0.0163859 0.00303584 -0.000875198 0.1091 -2.1688 -0.1362 7.95139e-016 3.18055e-015 -3.18055e-015 0.6151 -8.0947 -3.564 1.76556e-031 -3.18055e-015 3.18055e-015 0.4882 -2.341 -0.6462 0.0145753 0.00367309 -0.00325508 0.3574 -1.7166 -0.4742 0 0 -4.77083e-015 1.4199 -1.8761 1.4221 1.76556e-031 -3.18055e-015 3.18055e-015 1.1472 -3.4929 2.6336 7.95139e-016 0 -0 0.8229 -2.3 1.6571 7.95139e-016 -3.18055e-015 1.59028e-015 -9.412 3.9771 -0.7758 -11.4126 -22.2198 -8.68894 -0.7531 -40.938 -8.88179e-016 71.9849 76.9733 -79.9622 8.88179e-016 -40.1986 7.10543e-015 5.38373 25.9369 -4.7273 1.77636e-015 -4.4182 9.239 -1.49112e-006 -1.2244e-006 1.2047e-007 9.4119 3.9773 -0.7758 8.94308 -22.8907 11.9156 0.7532 -40.9383 -4.44089e-016 -98.3711 77.9238 105.857 3.10863e-015 -40.1986 -7.10543e-015 -3.17217 19.6107 6.6175 0 -4.4182 9.239 -4.02738e-007 7.46884e-008 -2.49971e-006 
